<?xml version="1.0" encoding="utf-8"?>
<svg x="0px" y="0px" width="800px" height="800px" viewBox="0 0 800 800" xmlns="http://www.w3.org/2000/svg" xmlns:xlink="http://www.w3.org/1999/xlink">
  <g id="Layer 2 Copy 2">
    <linearGradient x1="398.5" y1="828.009" x2="398.5" y2="-29.0068" gradientUnits="userSpaceOnUse" id="am2">
      <stop style="stop-color:#50f9ff;stop-opacity:1;"/>
      <stop offset="0.502232" style="stop-color:#cdce78;stop-opacity:1;"/>
      <stop offset="1" style="stop-color:#ff6b1d;stop-opacity:1;"/>
    </linearGradient>
    <g id="Path">
      <path style="fill:none;opacity:1;stroke:url(#am2);stroke-linecap:butt;stroke-linejoin:miter;stroke-miterlimit:10;stroke-opacity:1;stroke-width:15;" d="M398.5,96.5 C565.842,96.5,701.5,232.158,701.5,399.5 C701.5,566.842,565.842,702.5,398.5,702.5 C231.158,702.5,95.5,566.842,95.5,399.5 C95.5,232.158,231.158,96.5,398.5,96.5 z"/>
    </g>
    <linearGradient x1="400.5" y1="683.344" x2="400.5" y2="117.657" gradientUnits="userSpaceOnUse" id="am4">
      <stop style="stop-color:#50f9ff;stop-opacity:0.903846;"/>
      <stop offset="0.502232" style="stop-color:#cdce78;stop-opacity:0.592949;"/>
      <stop offset="1" style="stop-color:#ff6b1d;stop-opacity:0;"/>
    </linearGradient>
    <linearGradient x1="400.5" y1="683.344" x2="400.5" y2="117.657" gradientUnits="userSpaceOnUse" id="am5">
      <stop style="stop-color:#50f9ff;stop-opacity:1;"/>
      <stop offset="0.502232" style="stop-color:#cdce78;stop-opacity:1;"/>
      <stop offset="1" style="stop-color:#ff6b1d;stop-opacity:1;"/>
    </linearGradient>
    <g id="Path 16">
      <path style="fill:url(#am4);fill-opacity:1;fill-rule:evenodd;opacity:1;stroke:none;" d="M350.5,200.5 C350.5,200.5,450.5,200.5,450.5,200.5 C450.5,200.5,450.5,225.5,450.5,225.5 C450.5,225.5,350.5,225.5,350.5,225.5 C350.5,225.5,350.5,200.5,350.5,200.5 z M300.5,550.5 C300.5,550.5,500.5,550.5,500.5,550.5 C500.5,550.5,500.5,600.5,500.5,600.5 C500.5,600.5,300.5,600.5,300.5,600.5 C300.5,600.5,300.5,550.5,300.5,550.5 z M300.5,311.5 C300.5,311.5,500.5,311.5,500.5,311.5 C500.5,311.5,500.5,525.5,500.5,525.5 C500.5,525.5,300.5,525.5,300.5,525.5 C300.5,525.5,300.5,311.5,300.5,311.5 z M300.5,250.5 C300.5,250.5,500.5,250.5,500.5,250.5 C500.5,250.5,500.5,286.5,500.5,286.5 C500.5,286.5,300.5,286.5,300.5,286.5 C300.5,286.5,300.5,250.5,300.5,250.5 z"/>
      <path style="fill:none;opacity:1;stroke:url(#am5);stroke-linecap:butt;stroke-linejoin:miter;stroke-miterlimit:10;stroke-opacity:1;stroke-width:10;" d="M350.5,200.5 C350.5,200.5,450.5,200.5,450.5,200.5 C450.5,200.5,450.5,225.5,450.5,225.5 C450.5,225.5,350.5,225.5,350.5,225.5 C350.5,225.5,350.5,200.5,350.5,200.5 z M300.5,550.5 C300.5,550.5,500.5,550.5,500.5,550.5 C500.5,550.5,500.5,600.5,500.5,600.5 C500.5,600.5,300.5,600.5,300.5,600.5 C300.5,600.5,300.5,550.5,300.5,550.5 z M300.5,311.5 C300.5,311.5,500.5,311.5,500.5,311.5 C500.5,311.5,500.5,525.5,500.5,525.5 C500.5,525.5,300.5,525.5,300.5,525.5 C300.5,525.5,300.5,311.5,300.5,311.5 z M300.5,250.5 C300.5,250.5,500.5,250.5,500.5,250.5 C500.5,250.5,500.5,286.5,500.5,286.5 C500.5,286.5,300.5,286.5,300.5,286.5 C300.5,286.5,300.5,250.5,300.5,250.5 z"/>
    </g>
    <linearGradient x1="401.228" y1="657.639" x2="401.228" y2="192.362" gradientUnits="userSpaceOnUse" id="am7">
      <stop style="stop-color:#50f9ff;stop-opacity:1;"/>
      <stop offset="0.502232" style="stop-color:#cdce78;stop-opacity:1;"/>
      <stop offset="1" style="stop-color:#ff6b1d;stop-opacity:1;"/>
    </linearGradient>
    <linearGradient x1="401.228" y1="657.639" x2="401.228" y2="192.362" gradientUnits="userSpaceOnUse" id="am8">
      <stop style="stop-color:#50f9ff;stop-opacity:1;"/>
      <stop offset="0.502232" style="stop-color:#cdce78;stop-opacity:1;"/>
      <stop offset="1" style="stop-color:#ff6b1d;stop-opacity:1;"/>
    </linearGradient>
    <g id="Path 17">
      <path style="fill:url(#am7);fill-opacity:1;fill-rule:evenodd;opacity:0.69;stroke:none;" d="M261.349,275.989 C261.349,275.989,247.5,346.5,247.5,346.5 C247.5,346.5,221.5,369.784,221.5,369.784 C221.5,369.784,230.5,391.784,230.5,391.784 C230.5,391.784,197.5,430.784,197.5,430.784 C197.5,430.784,233.5,450.784,233.5,450.784 C233.5,450.784,257.5,589.5,257.5,589.5 C257.5,589.5,261.5,456.784,261.5,456.784 C261.5,456.784,238.5,425.784,238.5,425.784 C238.5,425.784,254.5,396.784,254.5,396.784 C254.5,396.784,245.5,375.784,245.5,375.784 C245.5,375.784,262.5,349.784,262.5,349.784 C262.5,349.784,261.349,275.989,261.349,275.989 z M532.377,581.471 C532.377,581.471,548.327,509.363,548.327,509.363 C548.327,509.363,577.658,485.684,577.658,485.684 C577.658,485.684,567.675,463.103,567.675,463.103 C567.675,463.103,604.956,423.376,604.956,423.376 C604.956,423.376,564.638,402.676,564.638,402.676 C564.638,402.676,538.468,260.5,538.468,260.5 C538.468,260.5,533.227,396.359,533.227,396.359 C533.227,396.359,558.882,428.242,558.882,428.242 C558.882,428.242,540.75,457.835,540.75,457.835 C540.75,457.835,550.739,479.392,550.739,479.392 C550.739,479.392,531.5,505.907,531.5,505.907 C531.5,505.907,532.377,581.471,532.377,581.471 z"/>
      <path style="fill:none;opacity:1;stroke:url(#am8);stroke-linecap:butt;stroke-linejoin:miter;stroke-miterlimit:10;stroke-opacity:1;stroke-width:5;" d="M261.349,275.989 C261.349,275.989,247.5,346.5,247.5,346.5 C247.5,346.5,221.5,369.784,221.5,369.784 C221.5,369.784,230.5,391.784,230.5,391.784 C230.5,391.784,197.5,430.784,197.5,430.784 C197.5,430.784,233.5,450.784,233.5,450.784 C233.5,450.784,257.5,589.5,257.5,589.5 C257.5,589.5,261.5,456.784,261.5,456.784 C261.5,456.784,238.5,425.784,238.5,425.784 C238.5,425.784,254.5,396.784,254.5,396.784 C254.5,396.784,245.5,375.784,245.5,375.784 C245.5,375.784,262.5,349.784,262.5,349.784 C262.5,349.784,261.349,275.989,261.349,275.989 z M532.377,581.471 C532.377,581.471,548.327,509.363,548.327,509.363 C548.327,509.363,577.658,485.684,577.658,485.684 C577.658,485.684,567.675,463.103,567.675,463.103 C567.675,463.103,604.956,423.376,604.956,423.376 C604.956,423.376,564.638,402.676,564.638,402.676 C564.638,402.676,538.468,260.5,538.468,260.5 C538.468,260.5,533.227,396.359,533.227,396.359 C533.227,396.359,558.882,428.242,558.882,428.242 C558.882,428.242,540.75,457.835,540.75,457.835 C540.75,457.835,550.739,479.392,550.739,479.392 C550.739,479.392,531.5,505.907,531.5,505.907 C531.5,505.907,532.377,581.471,532.377,581.471 z"/>
    </g>
  </g>
  <g id="Layer 3"/>
  <g id="Layer 2" style="opacity:0.54;"/>
</svg>
