<?xml version="1.0" encoding="utf-8"?>
<svg x="0px" y="0px" width="800px" height="800px" viewBox="0 0 800 800" xmlns="http://www.w3.org/2000/svg" xmlns:xlink="http://www.w3.org/1999/xlink">
  <g id="Layer 2 Copy">
    <g id="Layer 4"/>
    <linearGradient x1="398.525" y1="102.225" x2="398.525" y2="701.389" gradientUnits="userSpaceOnUse" id="am2">
      <stop style="stop-color:#ffcd1d;stop-opacity:1;"/>
      <stop offset="1" style="stop-color:#ff441e;stop-opacity:1;"/>
    </linearGradient>
    <g id="Path 278">
      <path style="fill:none;opacity:1;stroke:url(#am2);stroke-linecap:butt;stroke-linejoin:miter;stroke-miterlimit:10;stroke-opacity:1;stroke-width:8;" d="M224.5,600.5 C190.073,570.991,176.034,531.158,171.631,488.225 C167.631,449.225,167.141,392.208,217.5,343.5 C248,314,262,310,275.5,277.5 C280.047,266.554,283.5,231.5,264.5,206.5 C254.576,193.442,224.312,168.394,211.919,165.754 C211.899,165.75,211.891,165.78,211.911,165.786 C277.884,187.38,233,302,213,330 C188.379,364.47,139.996,394.33,124.5,439.5 C101,508,147.631,562.225,170.631,595.225 C208.855,650.069,247.631,667.225,275.631,678.225 C304.939,689.739,356.691,700.432,386.889,701.263 C420.805,702.197,458.471,697.963,490.5,687.5 C503.358,683.3,537.124,665.451,548.5,659.5 C585.758,640.01,609.117,622.059,620,609 C635,591,648,591,672.5,513.5 C680.626,487.795,680.531,449.263,675.5,422.5 C665.62,369.937,615.476,323.125,569.5,295.5 C510.642,260.135,381.18,232.774,378.889,145.263 C378.58,133.458,382.63,115.225,385.63,102.225 C366.851,148.319,381.162,194.817,414.009,224.992 C427.921,237.772,450.99,255.632,465.889,267.263 C527.768,315.571,573.508,350.435,602.5,429.5 C617.484,470.364,637.155,532.155,599.5,585.5 C587.5,602.5,558.5,618.5,558.5,618.5 C558.5,618.5,575.933,595.172,580.5,576.5 C584.111,561.737,581.872,545.136,570.5,532.5 C561.5,522.5,547.5,510.5,537.5,498.5 C529.217,488.56,521.5,477.5,520.5,464.5 C519.576,452.494,526.631,414.225,526.631,414.225 C526.631,414.225,494.653,456.307,505.631,496.225 C510.846,515.189,518.889,538.937,518.889,559.263 C518.889,568.263,516.889,578.263,511.889,589.263 C504.429,605.675,496.889,613.263,488.889,618.263 C482.774,622.085,479.631,623.225,470.631,622.224 C462.214,621.289,455.306,614.362,451.889,607.263 C446.091,595.216,446.025,577.645,449.995,565.46 C451.316,561.408,452.951,557.053,454.822,553.428 C454.849,553.375,454.867,553.318,454.889,553.263 C459.888,540.958,486.337,505.109,490.5,492.5 C506.553,443.877,463.631,365.225,463.631,365.225 C463.631,365.225,465.947,416.255,455.5,443.5 C452.388,451.617,437.5,468.5,437.5,468.5 C437.5,468.5,449.654,430.534,448.889,411.263 C446.821,359.127,441.5,343.5,417.5,301.5 C403.31,276.668,383.5,252.5,383.5,252.5 C383.5,252.5,397.097,328.78,386.63,357.225 C359.083,432.091,274.455,460.182,285.5,537.5 C286.5,544.5,286.5,548.5,292.5,558.5 C292.5,558.5,280.5,552.5,273.5,539.5 C244.857,486.306,295.409,463.668,318.5,434.5 C337.5,410.5,317.5,365.5,317.5,365.5 C317.5,365.5,324.5,407.5,308.5,421.5 C288.097,439.352,230.846,468.872,218.631,521.225 C211.631,551.225,221.897,589.157,254.5,618.5 C264.5,627.5,281.5,635.5,281.5,635.5 C281.5,635.5,259.5,630.5,224.5,600.5 z"/>
    </g>
    <linearGradient x1="398.5" y1="96.5" x2="398.5" y2="702.5" gradientUnits="userSpaceOnUse" id="am4">
      <stop style="stop-color:#ffcd1d;stop-opacity:1;"/>
      <stop offset="1" style="stop-color:#ff441e;stop-opacity:1;"/>
    </linearGradient>
    <g id="Path">
      <path style="fill:none;opacity:1;stroke:url(#am4);stroke-linecap:butt;stroke-linejoin:miter;stroke-miterlimit:10;stroke-opacity:1;stroke-width:15;" d="M398.5,96.5 C565.842,96.5,701.5,232.158,701.5,399.5 C701.5,566.842,565.842,702.5,398.5,702.5 C231.158,702.5,95.5,566.842,95.5,399.5 C95.5,232.158,231.158,96.5,398.5,96.5 z"/>
    </g>
    <linearGradient x1="376.975" y1="490" x2="376.975" y2="634" gradientUnits="userSpaceOnUse" id="am6">
      <stop style="stop-color:#ffcd1d;stop-opacity:1;"/>
      <stop offset="1" style="stop-color:#ff441e;stop-opacity:1;"/>
    </linearGradient>
    <g id="Path 299">
      <path style="fill:none;opacity:1;stroke:url(#am6);stroke-linecap:butt;stroke-linejoin:miter;stroke-miterlimit:10;stroke-opacity:1;stroke-width:6;" d="M361.59,626.844 C396.958,645.623,423.661,624.504,421.865,597.449 C419.921,568.158,394.667,559.433,410.193,537.154 C399.961,546.061,394.032,551.841,390.441,556.479 C385.986,562.232,383.258,574.259,383.258,574.259 C383.258,574.259,373.382,560.344,369.79,545.657 C366.336,531.531,366.783,524.013,370.375,490 C355.5,507.42,334.021,547.61,332.251,569.54 C330.525,590.922,337.428,614.015,361.59,626.844 z"/>
    </g>
  </g>
</svg>
