<?xml version="1.0" encoding="utf-8"?>
<svg x="0px" y="0px" width="800px" height="800px" viewBox="0 0 800 800" xmlns="http://www.w3.org/2000/svg" xmlns:xlink="http://www.w3.org/1999/xlink">
  <g id="Layer 4 Copy">
    <path id="Path" style="fill:#ff748d;fill-opacity:1;fill-rule:nonzero;opacity:1;stroke:#000000;stroke-linecap:round;stroke-linejoin:round;stroke-miterlimit:10;stroke-opacity:1;stroke-width:1;" d="M400.5,298.5 C400.5,298.5,481.5,148.5,481.5,148.5 C481.5,148.5,563.5,228.5,563.5,228.5 C563.5,228.5,402.5,297.5,400.5,298.5"/>
    <path id="Path" style="fill:#ff9699;fill-opacity:1;fill-rule:nonzero;opacity:1;stroke:#000000;stroke-linecap:round;stroke-linejoin:round;stroke-miterlimit:10;stroke-opacity:1;stroke-width:1;" d="M628.5,126.5 C628.5,126.5,737.5,298.5,737.5,298.5 C737.5,298.5,563.5,228.5,563.5,228.5 C563.5,228.5,628.5,126.5,628.5,126.5 z"/>
    <path id="Path" style="fill:#ff8093;fill-opacity:1;fill-rule:nonzero;opacity:1;stroke:#000000;stroke-linecap:round;stroke-linejoin:round;stroke-miterlimit:10;stroke-opacity:1;stroke-width:1;" d="M626.5,423.5 C626.5,423.5,737.5,298.5,737.5,298.5 C737.5,298.5,563.5,228.5,563.5,228.5 C563.5,228.5,626.5,423.5,626.5,423.5 z"/>
    <path id="Path" style="fill:#ef3d56;fill-opacity:1;fill-rule:nonzero;opacity:1;stroke:#000000;stroke-linecap:round;stroke-linejoin:round;stroke-miterlimit:10;stroke-opacity:1;stroke-width:1;" d="M400.5,583.5 C400.5,583.5,400.5,687.5,400.5,687.5 C400.5,687.5,495.5,610.5,495.5,610.5 C495.5,610.5,400.5,583.5,400.5,583.5 z"/>
    <path id="Path" style="fill:#ff8093;fill-opacity:1;fill-rule:nonzero;opacity:1;stroke:#000000;stroke-linecap:round;stroke-linejoin:round;stroke-miterlimit:10;stroke-opacity:1;stroke-width:1;" d="M626.5,423.5 C626.5,423.5,678.5,458.5,678.5,458.5 C678.5,458.5,494.5,610.5,494.5,610.5 C494.5,610.5,626.5,423.5,626.5,423.5 z"/>
    <path id="Path" style="fill:#f96472;fill-opacity:1;fill-rule:nonzero;opacity:1;stroke:#000000;stroke-linecap:round;stroke-linejoin:round;stroke-miterlimit:10;stroke-opacity:1;stroke-width:1;" d="M400.5,583.5 C400.5,583.5,495.5,610.5,495.5,610.5 C495.5,610.5,626.5,423.5,626.5,423.5 C626.5,423.5,400.5,583.5,400.5,583.5 z"/>
    <path id="Path" style="fill:#ff959a;fill-opacity:1;fill-rule:nonzero;opacity:1;stroke:#000000;stroke-linecap:round;stroke-linejoin:round;stroke-miterlimit:10;stroke-opacity:1;stroke-width:1;" d="M678.5,458.5 C678.5,458.5,737.5,298.5,737.5,298.5 C737.5,298.5,626.5,423.5,626.5,423.5 C626.5,423.5,678.5,458.5,678.5,458.5 z"/>
    <path id="Path" style="fill:#ffa7b6;fill-opacity:1;fill-rule:nonzero;opacity:1;stroke:#000000;stroke-linecap:round;stroke-linejoin:round;stroke-miterlimit:10;stroke-opacity:1;stroke-width:1;" d="M481.5,148.5 C481.5,148.5,563.5,228.5,563.5,228.5 C563.5,228.5,628.5,126.5,628.5,126.5 C628.5,126.5,481.5,148.5,481.5,148.5 z"/>
    <path id="Path" style="fill:#ef3d56;fill-opacity:1;fill-rule:nonzero;opacity:1;stroke:#000000;stroke-linecap:round;stroke-linejoin:round;stroke-miterlimit:10;stroke-opacity:1;stroke-width:1;" d="M400.5,223.5 C400.5,223.5,400.5,298.5,400.5,298.5 C400.5,298.5,481.5,148.5,481.5,148.5 C481.5,148.5,400.5,223.5,400.5,223.5 z"/>
  </g>
  <g id="Layer 4">
    <path id="Path" style="fill:#ef3d56;fill-opacity:1;fill-rule:nonzero;opacity:1;stroke:#000000;stroke-linecap:round;stroke-linejoin:round;stroke-miterlimit:10;stroke-opacity:1;stroke-width:1;" d="M400.5,298.5 C400.5,298.5,319.5,148.5,319.5,148.5 C319.5,148.5,237.5,228.5,237.5,228.5 C237.5,228.5,398.5,297.5,400.5,298.5"/>
    <path id="Path" style="fill:#c83a38;fill-opacity:1;fill-rule:nonzero;opacity:1;stroke:#000000;stroke-linecap:round;stroke-linejoin:round;stroke-miterlimit:10;stroke-opacity:1;stroke-width:1;" d="M172.5,126.5 C172.5,126.5,63.5,298.5,63.5,298.5 C63.5,298.5,237.5,228.5,237.5,228.5 C237.5,228.5,172.5,126.5,172.5,126.5 z"/>
    <path id="Path" style="fill:#ee3d55;fill-opacity:1;fill-rule:nonzero;opacity:1;stroke:#000000;stroke-linecap:round;stroke-linejoin:round;stroke-miterlimit:10;stroke-opacity:1;stroke-width:1;" d="M174.5,423.5 C174.5,423.5,63.5,298.5,63.5,298.5 C63.5,298.5,237.5,228.5,237.5,228.5 C237.5,228.5,174.5,423.5,174.5,423.5 z"/>
    <path id="Path" style="fill:#c83a38;fill-opacity:1;fill-rule:nonzero;opacity:1;stroke:#000000;stroke-linecap:round;stroke-linejoin:round;stroke-miterlimit:10;stroke-opacity:1;stroke-width:1;" d="M400.5,583.5 C400.5,583.5,400.5,687.5,400.5,687.5 C400.5,687.5,305.5,610.5,305.5,610.5 C305.5,610.5,400.5,583.5,400.5,583.5 z"/>
    <path id="Path" style="fill:#c83a38;fill-opacity:1;fill-rule:nonzero;opacity:1;stroke:#000000;stroke-linecap:round;stroke-linejoin:round;stroke-miterlimit:10;stroke-opacity:1;stroke-width:1;" d="M174.5,423.5 C174.5,423.5,122.5,458.5,122.5,458.5 C122.5,458.5,306.5,610.5,306.5,610.5 C306.5,610.5,174.5,423.5,174.5,423.5 z"/>
    <path id="Path" style="fill:#dd2338;fill-opacity:1;fill-rule:nonzero;opacity:1;stroke:#000000;stroke-linecap:round;stroke-linejoin:round;stroke-miterlimit:10;stroke-opacity:1;stroke-width:1;" d="M400.5,583.5 C400.5,583.5,305.5,610.5,305.5,610.5 C305.5,610.5,174.5,423.5,174.5,423.5 C174.5,423.5,400.5,583.5,400.5,583.5 z"/>
    <path id="Path" style="fill:#dd2338;fill-opacity:1;fill-rule:nonzero;opacity:1;stroke:#000000;stroke-linecap:round;stroke-linejoin:round;stroke-miterlimit:10;stroke-opacity:1;stroke-width:1;" d="M122.5,458.5 C122.5,458.5,63.5,298.5,63.5,298.5 C63.5,298.5,174.5,423.5,174.5,423.5 C174.5,423.5,122.5,458.5,122.5,458.5 z"/>
    <path id="Path" style="fill:#dd2338;fill-opacity:1;fill-rule:nonzero;opacity:1;stroke:#000000;stroke-linecap:round;stroke-linejoin:round;stroke-miterlimit:10;stroke-opacity:1;stroke-width:1;" d="M319.5,148.5 C319.5,148.5,237.5,228.5,237.5,228.5 C237.5,228.5,172.5,126.5,172.5,126.5 C172.5,126.5,319.5,148.5,319.5,148.5 z"/>
    <path id="Path" style="fill:#dd2338;fill-opacity:1;fill-rule:nonzero;opacity:1;stroke:#000000;stroke-linecap:round;stroke-linejoin:round;stroke-miterlimit:10;stroke-opacity:1;stroke-width:1;" d="M400.5,223.5 C400.5,223.5,400.5,298.5,400.5,298.5 C400.5,298.5,319.5,148.5,319.5,148.5 C319.5,148.5,400.5,223.5,400.5,223.5 z"/>
  </g>
  <g id="Layer 6">
    <path id="Path" style="fill:#ff585e;fill-opacity:1;fill-rule:nonzero;opacity:1;stroke:#000000;stroke-linecap:round;stroke-linejoin:round;stroke-miterlimit:10;stroke-opacity:1;stroke-width:1;" d="M400.5,298.5 C400.5,298.5,563.5,228.5,563.5,228.5 C563.5,228.5,626.5,423.5,626.5,423.5 C626.5,423.5,400.5,583.5,400.5,583.5 C400.5,583.5,174.5,423.5,174.5,423.5 C174.5,423.5,237.5,228.5,237.5,228.5 C237.5,228.5,400.5,298.5,400.5,298.5 z"/>
  </g>
</svg>
