<?xml version="1.0" encoding="utf-8"?>
<svg x="0px" y="0px" width="800px" height="800px" viewBox="0 0 800 800" xmlns="http://www.w3.org/2000/svg" xmlns:xlink="http://www.w3.org/1999/xlink">
  <g id="Layer 6">
    <path id="Path" style="fill:#574346;fill-opacity:1;fill-rule:nonzero;opacity:1;stroke:#000000;stroke-linecap:round;stroke-linejoin:round;stroke-miterlimit:10;stroke-opacity:1;stroke-width:1;" d="M400.5,223.5 C400.5,223.5,481.5,148.5,481.5,148.5 C481.5,148.5,628.5,126.5,628.5,126.5 C628.5,126.5,737.5,298.5,737.5,298.5 C737.5,298.5,678.5,458.5,678.5,458.5 C678.5,458.5,400.5,687.5,400.5,687.5 C400.5,687.5,122.5,458.5,122.5,458.5 C122.5,458.5,63.5,298.5,63.5,298.5 C63.5,298.5,172.5,126.5,172.5,126.5 C172.5,126.5,319.5,148.5,319.5,148.5 C319.5,148.5,400.5,223.5,400.5,223.5 z"/>
    <path id="Path" style="fill:#574346;fill-opacity:1;fill-rule:nonzero;opacity:1;stroke:#000000;stroke-linecap:round;stroke-linejoin:round;stroke-miterlimit:10;stroke-opacity:1;stroke-width:1;" d="M969.5,656.5"/>
  </g>
  <g id="Layer 6">
    <path id="Path" style="fill:#ae6238;fill-opacity:1;fill-rule:nonzero;opacity:1;stroke:#000000;stroke-linecap:round;stroke-linejoin:round;stroke-miterlimit:10;stroke-opacity:1;stroke-width:1;" d="M400.5,198.5 C400.5,198.5,475.5,131.5,475.5,131.5 C475.5,131.5,637.5,109.5,637.5,109.5 C637.5,109.5,756.5,296.5,756.5,296.5 C756.5,296.5,695.5,470.5,695.5,470.5 C695.5,470.5,400.5,713.5,400.5,713.5 C400.5,713.5,400.5,687.5,400.5,687.5 C400.5,687.5,678.5,458.5,678.5,458.5 C678.5,458.5,737.5,298.5,737.5,298.5 C737.5,298.5,629.5,128.5,628.5,126.5 C628.5,126.5,481.5,148.5,481.5,148.5 C481.5,148.5,400.5,223.5,400.5,223.5 C400.5,223.5,400.5,198.5,400.5,198.5 z"/>
    <path id="Path Copy" style="fill:#8f5636;fill-opacity:1;fill-rule:nonzero;opacity:1;stroke:#000000;stroke-linecap:round;stroke-linejoin:round;stroke-miterlimit:10;stroke-opacity:1;stroke-width:1;" d="M400.5,198.5 C400.5,198.5,325.5,131.5,325.5,131.5 C325.5,131.5,163.5,109.5,163.5,109.5 C163.5,109.5,44.5,296.5,44.5,296.5 C44.5,296.5,105.5,470.5,105.5,470.5 C105.5,470.5,400.5,713.5,400.5,713.5 C400.5,713.5,400.5,687.5,400.5,687.5 C400.5,687.5,122.5,458.5,122.5,458.5 C122.5,458.5,63.5,298.5,63.5,298.5 C63.5,298.5,171.5,128.5,172.5,126.5 C172.5,126.5,319.5,148.5,319.5,148.5 C319.5,148.5,400.5,223.5,400.5,223.5 C400.5,223.5,400.5,198.5,400.5,198.5 z"/>
  </g>
</svg>
