<?xml version="1.0" encoding="utf-8"?>
<svg x="0px" y="0px" width="800px" height="800px" viewBox="0 0 800 800" xmlns="http://www.w3.org/2000/svg" xmlns:xlink="http://www.w3.org/1999/xlink">
  <g id="Layer 2 Copy">
    <linearGradient x1="398.5" y1="702.5" x2="398.5" y2="96.5" gradientUnits="userSpaceOnUse" id="am2">
      <stop style="stop-color:#f24d5d;stop-opacity:1;"/>
      <stop offset="1" style="stop-color:#a5081f;stop-opacity:1;"/>
    </linearGradient>
    <g id="Path">
      <path style="fill:none;opacity:1;stroke:url(#am2);stroke-linecap:butt;stroke-linejoin:miter;stroke-miterlimit:10;stroke-opacity:1;stroke-width:15;" d="M398.5,96.5 C565.842,96.5,701.5,232.158,701.5,399.5 C701.5,566.842,565.842,702.5,398.5,702.5 C231.158,702.5,95.5,566.842,95.5,399.5 C95.5,232.158,231.158,96.5,398.5,96.5 z"/>
    </g>
    <linearGradient x1="431.663" y1="649" x2="431.663" y2="131.534" gradientUnits="userSpaceOnUse" id="am4">
      <stop style="stop-color:#f24d5d;stop-opacity:1;"/>
      <stop offset="1" style="stop-color:#a5081f;stop-opacity:1;"/>
    </linearGradient>
    <linearGradient x1="431.663" y1="649" x2="431.663" y2="131.534" gradientUnits="userSpaceOnUse" id="am5">
      <stop style="stop-color:#f24d5d;stop-opacity:1;"/>
      <stop offset="1" style="stop-color:#a5081f;stop-opacity:1;"/>
    </linearGradient>
    <g id="Path 0">
      <path style="fill:url(#am4);fill-opacity:1;fill-rule:evenodd;opacity:1;stroke:none;" d="M574,153 C508,107,394.561,135.051,336,236 C315.782,270.852,327.603,300.104,295.608,351.395 C280.126,376.213,252.637,390.294,234.888,413.18 C183.864,478.973,164.866,551.664,220,649 C220,649,212.229,610.416,216.933,593.626 C231.988,539.885,268.159,504.59,316.953,479.348 C344.225,465.241,372.506,452.905,402.84,447.138 C451.494,437.889,508.577,456.906,562.5,441.5 C618.5,425.5,666.248,369.658,676,319 C678.557,305.716,673.587,273.593,667,259 C655.103,232.643,646.666,225.404,626.945,204.374 C616.637,193.38,579.702,156.974,574,153 z M399.922,337.489 C405.91,323.444,415.12,310.798,425.922,299.906 C447.816,277.752,478.534,264.119,509.702,263.986 C508.165,276.322,505.754,288.541,500.697,299.635 C495.527,310.339,487.379,318.777,471.698,325.668 C463.858,329.149,451.481,329.525,430.488,329.5 C419.775,329.565,409.308,332.582,399.922,337.489 z M396,342 C396,342,402.5,320.5,424.5,298.5 C464.55,258.45,512,262,512,262 C512,262,509.788,285.316,502.5,300.5 C497.164,311.617,488.5,320.5,472.5,327.5 C463.992,331.222,451.5,331.5,430.5,331.5 C411.502,331.5,396,342,396,342 z M399.922,337.489 C405.91,323.444,415.12,310.798,425.922,299.906 C447.816,277.752,478.534,264.119,509.702,263.986 C508.165,276.322,505.754,288.541,500.697,299.635 C495.527,310.339,487.379,318.777,471.698,325.668 C463.858,329.149,451.481,329.525,430.488,329.5 C419.775,329.565,409.308,332.582,399.922,337.489 z M397.05,343.702 C407.113,337.491,418.745,333.565,430.5,333.5 C451.519,333.475,464.126,333.295,473.302,329.332 C489.621,322.223,498.802,312.895,504.32,301.329 C509.976,288.908,512.398,275.454,513.986,262.238 C514.074,261.504,514.162,260.77,514.25,260.036 C513.511,260.024,512.772,260.012,512.033,260 C478.895,259.462,446.259,273.656,423.08,297.092 C410.646,309.632,400.178,324.512,394.118,341.322 C393.471,343.118,392.824,344.914,392.176,346.71 C393.801,345.708,395.425,344.705,397.05,343.702 z M396,342 C396,342,402.5,320.5,424.5,298.5 C464.55,258.45,512,262,512,262 C512,262,509.788,285.316,502.5,300.5 C497.164,311.617,488.5,320.5,472.5,327.5 C463.992,331.222,451.5,331.5,430.5,331.5 C411.502,331.5,396,342,396,342 z"/>
      <path style="fill:none;opacity:1;stroke:url(#am5);stroke-linecap:butt;stroke-linejoin:miter;stroke-miterlimit:10;stroke-opacity:1;stroke-width:1;" d="M574,153 C508,107,394.561,135.051,336,236 C315.782,270.852,327.603,300.104,295.608,351.395 C280.126,376.213,252.637,390.294,234.888,413.18 C183.864,478.973,164.866,551.664,220,649 C220,649,212.229,610.416,216.933,593.626 C231.988,539.885,268.159,504.59,316.953,479.348 C344.225,465.241,372.506,452.905,402.84,447.138 C451.494,437.889,508.577,456.906,562.5,441.5 C618.5,425.5,666.248,369.658,676,319 C678.557,305.716,673.587,273.593,667,259 C655.103,232.643,646.666,225.404,626.945,204.374 C616.637,193.38,579.702,156.974,574,153 z M399.922,337.489 C405.91,323.444,415.12,310.798,425.922,299.906 C447.816,277.752,478.534,264.119,509.702,263.986 C508.165,276.322,505.754,288.541,500.697,299.635 C495.527,310.339,487.379,318.777,471.698,325.668 C463.858,329.149,451.481,329.525,430.488,329.5 C419.775,329.565,409.308,332.582,399.922,337.489 z M396,342 C396,342,402.5,320.5,424.5,298.5 C464.55,258.45,512,262,512,262 C512,262,509.788,285.316,502.5,300.5 C497.164,311.617,488.5,320.5,472.5,327.5 C463.992,331.222,451.5,331.5,430.5,331.5 C411.502,331.5,396,342,396,342 z M399.922,337.489 C405.91,323.444,415.12,310.798,425.922,299.906 C447.816,277.752,478.534,264.119,509.702,263.986 C508.165,276.322,505.754,288.541,500.697,299.635 C495.527,310.339,487.379,318.777,471.698,325.668 C463.858,329.149,451.481,329.525,430.488,329.5 C419.775,329.565,409.308,332.582,399.922,337.489 z M397.05,343.702 C407.113,337.491,418.745,333.565,430.5,333.5 C451.519,333.475,464.126,333.295,473.302,329.332 C489.621,322.223,498.802,312.895,504.32,301.329 C509.976,288.908,512.398,275.454,513.986,262.238 C514.074,261.504,514.162,260.77,514.25,260.036 C513.511,260.024,512.772,260.012,512.033,260 C478.895,259.462,446.259,273.656,423.08,297.092 C410.646,309.632,400.178,324.512,394.118,341.322 C393.471,343.118,392.824,344.914,392.176,346.71 C393.801,345.708,395.425,344.705,397.05,343.702 z M396,342 C396,342,402.5,320.5,424.5,298.5 C464.55,258.45,512,262,512,262 C512,262,509.788,285.316,502.5,300.5 C497.164,311.617,488.5,320.5,472.5,327.5 C463.992,331.222,451.5,331.5,430.5,331.5 C411.502,331.5,396,342,396,342 z"/>
    </g>
    <linearGradient x1="260.671" y1="457.679" x2="260.671" y2="127" gradientUnits="userSpaceOnUse" id="am7">
      <stop style="stop-color:#f24d5d;stop-opacity:1;"/>
      <stop offset="1" style="stop-color:#a5081f;stop-opacity:1;"/>
    </linearGradient>
    <linearGradient x1="260.671" y1="457.679" x2="260.671" y2="127" gradientUnits="userSpaceOnUse" id="am8">
      <stop style="stop-color:#f24d5d;stop-opacity:1;"/>
      <stop offset="1" style="stop-color:#a5081f;stop-opacity:1;"/>
    </linearGradient>
    <g id="Path">
      <path style="fill:url(#am7);fill-opacity:1;fill-rule:nonzero;opacity:1;stroke:none;" d="M395,127 C384,148,365.172,163.029,345,174 C306.178,195.115,262,210,222.708,222.254 C205.556,227.603,169.02,249.742,168.546,270.289 C168.296,281.076,181.086,283.324,189.545,283.598 C207.639,284.183,242.782,269.402,238.061,304.229 C236.067,318.939,221.317,329.714,210.527,338.519 C188.357,356.609,139.631,383.802,129.49,409.697 C112.876,452.118,166.185,460.382,192,457 C183.876,457.034,168.178,450.912,162,448 C137.867,436.623,148.896,408.597,161.324,391.436 C182.76,361.836,218.215,343.484,246.9,321.935 C256.428,314.777,269.333,303.687,271.421,291.339 C276.539,261.077,227.94,272.253,212.605,272.468 C206.467,272.555,190.946,273.423,192.311,263.568 C194.131,250.433,224.591,234.742,235.747,228.806 C281.205,204.619,334.647,192.867,373,158 C384,148,391.841,135.101,395,127 z"/>
      <path style="fill:none;opacity:1;stroke:url(#am8);stroke-linecap:butt;stroke-linejoin:miter;stroke-miterlimit:10;stroke-opacity:1;stroke-width:1;" d="M395,127 C384,148,365.172,163.029,345,174 C306.178,195.115,262,210,222.708,222.254 C205.556,227.603,169.02,249.742,168.546,270.289 C168.296,281.076,181.086,283.324,189.545,283.598 C207.639,284.183,242.782,269.402,238.061,304.229 C236.067,318.939,221.317,329.714,210.527,338.519 C188.357,356.609,139.631,383.802,129.49,409.697 C112.876,452.118,166.185,460.382,192,457 C183.876,457.034,168.178,450.912,162,448 C137.867,436.623,148.896,408.597,161.324,391.436 C182.76,361.836,218.215,343.484,246.9,321.935 C256.428,314.777,269.333,303.687,271.421,291.339 C276.539,261.077,227.94,272.253,212.605,272.468 C206.467,272.555,190.946,273.423,192.311,263.568 C194.131,250.433,224.591,234.742,235.747,228.806 C281.205,204.619,334.647,192.867,373,158 C384,148,391.841,135.101,395,127 z"/>
    </g>
    <linearGradient x1="478.5" y1="653.88" x2="478.5" y2="409.5" gradientUnits="userSpaceOnUse" id="am10">
      <stop style="stop-color:#f24d5d;stop-opacity:1;"/>
      <stop offset="1" style="stop-color:#a5081f;stop-opacity:1;"/>
    </linearGradient>
    <linearGradient x1="478.5" y1="653.88" x2="478.5" y2="409.5" gradientUnits="userSpaceOnUse" id="am11">
      <stop style="stop-color:#f24d5d;stop-opacity:1;"/>
      <stop offset="1" style="stop-color:#a5081f;stop-opacity:1;"/>
    </linearGradient>
    <g id="Path">
      <path style="fill:url(#am10);fill-opacity:1;fill-rule:nonzero;opacity:1;stroke:none;" d="M445.878,653.809 C460.326,650.053,517.161,638.058,527.878,625.809 C534.878,617.809,537.049,603.24,528.878,598.809 C519.812,593.893,508.515,593.06,491.878,604.809 C463.866,624.593,435.878,634.809,404.878,642.809 C378.69,649.568,346.44,646.895,320.917,633.654 C309.105,627.526,297.251,617.432,292.696,604.614 C284.844,582.522,299.108,559.414,318.663,549.174 C364.293,525.279,416.305,534.242,465.587,535.265 C517.227,536.337,578.696,532.018,620.378,499.55 C634.769,488.34,643.75,477.036,652.036,460.83 C660.079,445.099,664.161,427.376,666.5,409.5 C663.96,434.706,658.376,461.985,643.827,483.38 C613.039,528.654,530.569,548.901,478.767,556.58 C439.888,562.344,355.976,559.162,347.095,609.43 C342.535,635.247,374.615,642.205,394.455,639.501 C428.878,634.809,460.849,625.613,487.5,601.5 C508.5,582.5,536.5,571.5,554.878,585.809 C572.732,599.71,554.878,622.809,544.878,629.809 C528.411,641.336,465.278,654.982,445.878,653.809 z"/>
      <path style="fill:none;opacity:1;stroke:url(#am11);stroke-linecap:round;stroke-linejoin:round;stroke-miterlimit:10;stroke-opacity:1;stroke-width:1;" d="M445.878,653.809 C460.326,650.053,517.161,638.058,527.878,625.809 C534.878,617.809,537.049,603.24,528.878,598.809 C519.812,593.893,508.515,593.06,491.878,604.809 C463.866,624.593,435.878,634.809,404.878,642.809 C378.69,649.568,346.44,646.895,320.917,633.654 C309.105,627.526,297.251,617.432,292.696,604.614 C284.844,582.522,299.108,559.414,318.663,549.174 C364.293,525.279,416.305,534.242,465.587,535.265 C517.227,536.337,578.696,532.018,620.378,499.55 C634.769,488.34,643.75,477.036,652.036,460.83 C660.079,445.099,664.161,427.376,666.5,409.5 C663.96,434.706,658.376,461.985,643.827,483.38 C613.039,528.654,530.569,548.901,478.767,556.58 C439.888,562.344,355.976,559.162,347.095,609.43 C342.535,635.247,374.615,642.205,394.455,639.501 C428.878,634.809,460.849,625.613,487.5,601.5 C508.5,582.5,536.5,571.5,554.878,585.809 C572.732,599.71,554.878,622.809,544.878,629.809 C528.411,641.336,465.278,654.982,445.878,653.809 z"/>
    </g>
    <linearGradient x1="154.223" y1="376.149" x2="164.082" y2="299.783" gradientUnits="userSpaceOnUse" id="am13">
      <stop style="stop-color:#f24d5d;stop-opacity:1;"/>
      <stop offset="1" style="stop-color:#a5081f;stop-opacity:1;"/>
    </linearGradient>
    <linearGradient x1="154.223" y1="376.149" x2="164.082" y2="299.783" gradientUnits="userSpaceOnUse" id="am14">
      <stop style="stop-color:#f24d5d;stop-opacity:1;"/>
      <stop offset="1" style="stop-color:#a5081f;stop-opacity:1;"/>
    </linearGradient>
    <g id="Path">
      <path style="fill:url(#am13);fill-opacity:1;fill-rule:nonzero;opacity:1;stroke:none;" d="M192.873,303.5 C193.893,314.813,175.882,321.782,167.324,324.07 C160.189,325.977,152.486,329.022,146.35,333.165 C138.133,338.712,130.929,346.816,128.06,356.405 C126.905,360.268,124.5,372.312,124.5,372.312 C124.5,372.312,130.559,351.893,142.226,344.351 C156.527,335.106,169.474,335.278,178.507,328.869 C192.936,318.633,194.485,306.108,192.873,303.5 z"/>
      <path style="fill:none;opacity:1;stroke:url(#am14);stroke-linecap:round;stroke-linejoin:round;stroke-miterlimit:10;stroke-opacity:1;stroke-width:1;" d="M192.873,303.5 C193.893,314.813,175.882,321.782,167.324,324.07 C160.189,325.977,152.486,329.022,146.35,333.165 C138.133,338.712,130.929,346.816,128.06,356.405 C126.905,360.268,124.5,372.312,124.5,372.312 C124.5,372.312,130.559,351.893,142.226,344.351 C156.527,335.106,169.474,335.278,178.507,328.869 C192.936,318.633,194.485,306.108,192.873,303.5 z"/>
    </g>
    <linearGradient x1="475.984" y1="506.134" x2="475.984" y2="482.5" gradientUnits="userSpaceOnUse" id="am16">
      <stop style="stop-color:#f24d5d;stop-opacity:1;"/>
      <stop offset="1" style="stop-color:#a5081f;stop-opacity:1;"/>
    </linearGradient>
    <linearGradient x1="475.984" y1="506.134" x2="475.984" y2="482.5" gradientUnits="userSpaceOnUse" id="am17">
      <stop style="stop-color:#f24d5d;stop-opacity:1;"/>
      <stop offset="1" style="stop-color:#a5081f;stop-opacity:1;"/>
    </linearGradient>
    <g id="Path">
      <path style="fill:url(#am16);fill-opacity:1;fill-rule:nonzero;opacity:1;stroke:none;" d="M558.467,484.49 C553.543,488.07,534.356,494.988,528.467,495.49 C512.325,496.868,504.467,496.49,490.467,490.49 C478.167,485.219,463.871,481.3,450.503,482.838 C436.207,484.482,423.137,487.955,410.467,494.49 C404.831,497.397,393.5,506.134,393.5,506.134 C393.5,506.134,399.775,501.231,402.048,499.907 C411.012,494.683,420.257,491.748,430.225,489.027 C453.905,482.564,474.175,495.011,497.467,499.49 C523.467,504.49,547.797,492.388,558.467,484.49 z"/>
      <path style="fill:none;opacity:1;stroke:url(#am17);stroke-linecap:round;stroke-linejoin:round;stroke-miterlimit:10;stroke-opacity:1;stroke-width:1;" d="M558.467,484.49 C553.543,488.07,534.356,494.988,528.467,495.49 C512.325,496.868,504.467,496.49,490.467,490.49 C478.167,485.219,463.871,481.3,450.503,482.838 C436.207,484.482,423.137,487.955,410.467,494.49 C404.831,497.397,393.5,506.134,393.5,506.134 C393.5,506.134,399.775,501.231,402.048,499.907 C411.012,494.683,420.257,491.748,430.225,489.027 C453.905,482.564,474.175,495.011,497.467,499.49 C523.467,504.49,547.797,492.388,558.467,484.49 z"/>
    </g>
  </g>
</svg>
