<?xml version="1.0" encoding="utf-8"?>
<svg x="0px" y="0px" width="800px" height="800px" viewBox="0 0 800 800" xmlns="http://www.w3.org/2000/svg" xmlns:xlink="http://www.w3.org/1999/xlink">
  <g id="Layer 2 Copy 1">
    <linearGradient x1="111.192" y1="357.638" x2="696.998" y2="413.508" gradientUnits="userSpaceOnUse" id="am2">
      <stop style="stop-color:#54d169;stop-opacity:1;"/>
      <stop offset="1" style="stop-color:#aff479;stop-opacity:1;"/>
    </linearGradient>
    <g id="Path 9">
      <path style="fill:none;opacity:1;stroke:url(#am2);stroke-linecap:round;stroke-linejoin:miter;stroke-miterlimit:10;stroke-opacity:1;stroke-width:7;" d="M579.481,393.69 C556.872,387.67,550.257,358.933,572.058,344.688 C604.307,323.617,641.797,353.271,643.054,382.367 C644.782,422.353,594.072,452.068,551.126,437.347 C512.291,424.036,493.122,389.027,491.123,366.059 C487.581,325.373,520.943,276.027,594.97,278.512 C694.908,281.868,728.807,412.597,668.665,461.916 C614.581,506.267,549.694,506.501,495.21,473.383 C408.511,420.684,407.862,349.975,295.68,324.926 C204.031,304.462,87.2261,386.347,105.261,482.555 C96.7847,459.965,105.868,419.759,115.696,399.375 C139.696,349.603,184.123,305.279,238.562,286.505 C271.191,275.252,313.901,272.036,347.375,279.631 C404.597,292.615,454.264,321.366,491.358,365.804 M357.746,424.536 C373.556,406.726,394.704,428.06,386.069,444.623 C376.171,463.605,357,464.065,340.475,457.66 C315.22,447.87,307.442,412.977,325.16,393.733 C345.923,371.182,381.378,374.505,397.749,384.932 C437.485,410.241,436.111,455.027,413.84,478.495 C383.857,510.091,327.329,502.872,299.602,474.045 C273.008,446.396,262.412,388.399,188.495,381.349 C154.542,378.111,124.417,402.686,111.446,432.758 C105.979,445.432,104.909,462.137,103.613,475.729 C100.868,460.164,106.1,443.359,111.388,429.756 C118.513,411.423,128.034,396.404,143.905,383.858 C154.326,375.62,167.599,370.304,180.276,366.103 C239.185,346.583,275.322,358.722,317.345,404.263"/>
    </g>
    <linearGradient x1="95.5" y1="399.5" x2="701.5" y2="399.5" gradientUnits="userSpaceOnUse" id="am4">
      <stop style="stop-color:#54d169;stop-opacity:1;"/>
      <stop offset="1" style="stop-color:#aff479;stop-opacity:1;"/>
    </linearGradient>
    <g id="Path">
      <path style="fill:none;opacity:1;stroke:url(#am4);stroke-linecap:butt;stroke-linejoin:miter;stroke-miterlimit:10;stroke-opacity:1;stroke-width:15;" d="M398.5,96.5 C565.842,96.5,701.5,232.158,701.5,399.5 C701.5,566.842,565.842,702.5,398.5,702.5 C231.158,702.5,95.5,566.842,95.5,399.5 C95.5,232.158,231.158,96.5,398.5,96.5 z"/>
    </g>
  </g>
</svg>
